<?xml version="1.0" encoding="UTF-8" standalone="no"?>
<!DOCTYPE svg PUBLIC "-//W3C//DTD SVG 1.1//EN"
 "http://www.w3.org/Graphics/SVG/1.1/DTD/svg11.dtd">
<!-- Generated by graphviz version 2.38.0 (20140413.2041)
 -->
<!-- Title: g Pages: 1 -->
<svg width="244pt" height="166pt"
 viewBox="0.00 0.00 244.00 166.00" xmlns="http://www.w3.org/2000/svg" xmlns:xlink="http://www.w3.org/1999/xlink">
<g id="graph0" class="graph" transform="scale(1 1) rotate(0) translate(4 162)">
<title>g</title>
<polygon fill="white" stroke="none" points="-4,4 -4,-162 240,-162 240,4 -4,4"/>
<g id="clust1" class="cluster"><title>cluster_b</title>
<polygon fill="none" stroke="black" points="8,-98 8,-150 114,-150 114,-98 8,-98"/>
</g>
<g id="clust3" class="cluster"><title>cluster_d</title>
<polygon fill="none" stroke="black" points="65,-8 65,-60 171,-60 171,-8 65,-8"/>
</g>
<g id="clust2" class="cluster"><title>cluster_c</title>
<polygon fill="none" stroke="black" points="122,-98 122,-150 228,-150 228,-98 122,-98"/>
</g>
<!-- b1 -->
<g id="node1" class="node"><title>b1</title>
<ellipse fill="none" stroke="black" cx="88" cy="-124" rx="18" ry="18"/>
<text text-anchor="middle" x="88" y="-120.3" font-family="Times New Roman,serif" font-size="14.00">off</text>
</g>
<!-- di -->
<g id="node5" class="node"><title>di</title>
<ellipse fill="none" stroke="black" cx="145" cy="-34" rx="18" ry="18"/>
<text text-anchor="middle" x="145" y="-30.3" font-family="Times New Roman,serif" font-size="14.00">off</text>
</g>
<!-- b1&#45;&gt;di -->
<!-- d0 -->
<g id="node6" class="node"><title>d0</title>
<ellipse fill="none" stroke="black" cx="91" cy="-34" rx="18" ry="18"/>
<text text-anchor="middle" x="91" y="-30.3" font-family="Times New Roman,serif" font-size="14.00">on</text>
</g>
<!-- b1&#45;&gt;d0 -->
<!-- b0 -->
<g id="node2" class="node"><title>b0</title>
<ellipse fill="none" stroke="black" cx="34" cy="-124" rx="18" ry="18"/>
<text text-anchor="middle" x="34" y="-120.3" font-family="Times New Roman,serif" font-size="14.00">on</text>
</g>
<!-- b0&#45;&gt;di -->
<g id="edge2" class="edge"><title>b0&#45;&gt;di</title>
<path fill="none" stroke="black" d="M46.5403,-110.615C50.9739,-106.447 56.0831,-101.875 61,-98 84.9125,-79.1531 94.0875,-78.8469 118,-60 121.073,-57.5779 124.221,-54.8837 127.233,-52.1863"/>
<polygon fill="black" stroke="black" points="132.46,-47.3855 129.435,-54.4406 129.882,-49.753 127.304,-52.1206 127.304,-52.1206 127.304,-52.1206 129.882,-49.753 125.173,-49.8006 132.46,-47.3855 132.46,-47.3855"/>
</g>
<!-- b0&#45;&gt;d0 -->
<g id="edge1" class="edge"><title>b0&#45;&gt;d0</title>
<path fill="none" stroke="black" d="M43.4124,-108.469C52.7359,-94.0743 67.1035,-71.8929 77.6131,-55.6675"/>
<polygon fill="black" stroke="black" points="81.5736,-49.553 80.4119,-57.1407 79.6708,-52.4906 77.7681,-55.4282 77.7681,-55.4282 77.7681,-55.4282 79.6708,-52.4906 75.1242,-53.7157 81.5736,-49.553 81.5736,-49.553"/>
</g>
<!-- c1 -->
<g id="node3" class="node"><title>c1</title>
<ellipse fill="none" stroke="black" cx="202" cy="-124" rx="18" ry="18"/>
<text text-anchor="middle" x="202" y="-120.3" font-family="Times New Roman,serif" font-size="14.00">off</text>
</g>
<!-- c1&#45;&gt;di -->
<!-- c1&#45;&gt;d0 -->
<!-- c0 -->
<g id="node4" class="node"><title>c0</title>
<ellipse fill="none" stroke="black" cx="148" cy="-124" rx="18" ry="18"/>
<text text-anchor="middle" x="148" y="-120.3" font-family="Times New Roman,serif" font-size="14.00">on</text>
</g>
<!-- c0&#45;&gt;di -->
<g id="edge6" class="edge"><title>c0&#45;&gt;di</title>
<path fill="none" stroke="black" d="M147.407,-105.614C146.957,-92.3912 146.331,-74.0317 145.83,-59.3476"/>
<polygon fill="black" stroke="black" points="145.581,-52.0504 148.968,-58.939 145.701,-55.5484 145.82,-59.0464 145.82,-59.0464 145.82,-59.0464 145.701,-55.5484 142.672,-59.1537 145.581,-52.0504 145.581,-52.0504"/>
</g>
<!-- c0&#45;&gt;d0 -->
<g id="edge5" class="edge"><title>c0&#45;&gt;d0</title>
<path fill="none" stroke="black" d="M138.588,-108.469C129.264,-94.0743 114.897,-71.8929 104.387,-55.6675"/>
<polygon fill="black" stroke="black" points="100.426,-49.553 106.876,-53.7157 102.329,-52.4906 104.232,-55.4282 104.232,-55.4282 104.232,-55.4282 102.329,-52.4906 101.588,-57.1407 100.426,-49.553 100.426,-49.553"/>
</g>
</g>
</svg>
