<?xml version="1.0" encoding="UTF-8" standalone="no"?>
<!DOCTYPE svg PUBLIC "-//W3C//DTD SVG 1.1//EN"
 "http://www.w3.org/Graphics/SVG/1.1/DTD/svg11.dtd">
<!-- Generated by graphviz version 2.38.0 (20140413.2041)
 -->
<!-- Title: g Pages: 1 -->
<svg width="98pt" height="149pt"
 viewBox="0.00 0.00 98.00 149.00" xmlns="http://www.w3.org/2000/svg" xmlns:xlink="http://www.w3.org/1999/xlink">
<g id="graph0" class="graph" transform="scale(1 1) rotate(0) translate(4 145)">
<title>g</title>
<polygon fill="white" stroke="none" points="-4,4 -4,-145 94,-145 94,4 -4,4"/>
<!-- x0 -->
<g id="node1" class="node"><title>x0</title>
<polygon fill="none" stroke="black" points="36,-141 0,-141 0,-105 36,-105 36,-141"/>
<text text-anchor="start" x="11" y="-120.3" font-family="Times New Roman,serif" text-decoration="overline" font-size="14.00">x</text>
<text text-anchor="start" x="18" y="-120.3" font-family="Times New Roman,serif" baseline-shift="sub" font-size="14.00">0</text>
</g>
<!-- y -->
<g id="node3" class="node"><title>y</title>
<polygon fill="none" stroke="black" points="63,-36 27,-36 27,-0 63,-0 63,-36"/>
<text text-anchor="start" x="41.5" y="-15.3" font-family="Times New Roman,serif" text-decoration="overline" font-size="14.00">y</text>
</g>
<!-- x0&#45;&gt;y -->
<g id="edge1" class="edge"><title>x0&#45;&gt;y</title>
<path fill="none" stroke="black" d="M22.2545,-104.94C25.2157,-93.1467 29.2842,-77.1038 33,-63 34.7184,-56.4775 36.622,-49.4237 38.3971,-42.9145"/>
<polygon fill="black" stroke="black" points="40.2582,-36.1159 41.4482,-43.6992 39.3341,-39.4917 38.4099,-42.8675 38.4099,-42.8675 38.4099,-42.8675 39.3341,-39.4917 35.3717,-42.0358 40.2582,-36.1159 40.2582,-36.1159"/>
<text text-anchor="start" x="33" y="-67.8" font-family="Times New Roman,serif" font-size="14.00">w</text>
<text text-anchor="start" x="43" y="-67.8" font-family="Times New Roman,serif" baseline-shift="sub" font-size="14.00">0</text>
</g>
<!-- x1 -->
<g id="node2" class="node"><title>x1</title>
<polygon fill="none" stroke="black" points="90,-141 54,-141 54,-105 90,-105 90,-141"/>
<text text-anchor="start" x="65" y="-120.3" font-family="Times New Roman,serif" text-decoration="overline" font-size="14.00">x</text>
<text text-anchor="start" x="72" y="-120.3" font-family="Times New Roman,serif" baseline-shift="sub" font-size="14.00">1</text>
</g>
<!-- x1&#45;&gt;y -->
<g id="edge2" class="edge"><title>x1&#45;&gt;y</title>
<path fill="none" stroke="black" d="M67.5415,-104.992C63.1055,-88.0693 56.2591,-61.9515 51.2752,-42.9386"/>
<polygon fill="black" stroke="black" points="49.4651,-36.0336 54.2872,-42.0061 50.3527,-39.4192 51.2402,-42.8048 51.2402,-42.8048 51.2402,-42.8048 50.3527,-39.4192 48.1931,-43.6036 49.4651,-36.0336 49.4651,-36.0336"/>
<text text-anchor="start" x="60" y="-67.8" font-family="Times New Roman,serif" font-size="14.00">w</text>
<text text-anchor="start" x="70" y="-67.8" font-family="Times New Roman,serif" baseline-shift="sub" font-size="14.00">1</text>
</g>
</g>
</svg>
