<?xml version="1.0" encoding="UTF-8" standalone="no"?>
<!DOCTYPE svg PUBLIC "-//W3C//DTD SVG 1.1//EN"
 "http://www.w3.org/Graphics/SVG/1.1/DTD/svg11.dtd">
<!-- Generated by graphviz version 2.38.0 (20140413.2041)
 -->
<!-- Title: g Pages: 1 -->
<svg width="138pt" height="134pt"
 viewBox="0.00 0.00 138.00 134.00" xmlns="http://www.w3.org/2000/svg" xmlns:xlink="http://www.w3.org/1999/xlink">
<g id="graph0" class="graph" transform="scale(1 1) rotate(0) translate(4 130)">
<title>g</title>
<polygon fill="white" stroke="none" points="-4,4 -4,-130 134,-130 134,4 -4,4"/>
<g id="clust1" class="cluster"><title>cluster_0</title>
<polygon fill="none" stroke="black" points="8,-8 8,-64 122,-64 122,-8 8,-8"/>
</g>
<!-- f0 -->
<g id="node1" class="node"><title>f0</title>
<polygon fill="none" stroke="black" points="53,-126 19,-126 19,-92 53,-92 53,-126"/>
<text text-anchor="start" x="28" y="-106.3" font-family="Times New Roman,serif" font-size="14.00">F</text>
<text text-anchor="start" x="37" y="-106.3" font-family="Times New Roman,serif" baseline-shift="sub" font-size="14.00">0</text>
</g>
<!-- d0 -->
<g id="node3" class="node"><title>d0</title>
<ellipse fill="none" stroke="black" cx="36" cy="-36" rx="20" ry="20"/>
<text text-anchor="start" x="27.5" y="-33.3" font-family="Times New Roman,serif" font-size="14.00">D</text>
<text text-anchor="start" x="37.5" y="-33.3" font-family="Times New Roman,serif" baseline-shift="sub" font-size="14.00">0</text>
</g>
<!-- f0&#45;&gt;d0 -->
<g id="edge1" class="edge"><title>f0&#45;&gt;d0</title>
<path fill="none" stroke="black" d="M36,-91.889C36,-81.2514 36,-67.2631 36,-56.0705"/>
</g>
<!-- fk -->
<g id="node2" class="node"><title>fk</title>
<polygon fill="none" stroke="black" points="111,-126 77,-126 77,-92 111,-92 111,-126"/>
<text text-anchor="start" x="86" y="-106.3" font-family="Times New Roman,serif" font-size="14.00">F</text>
<text text-anchor="start" x="95" y="-106.3" font-family="Times New Roman,serif" baseline-shift="sub" font-size="14.00">k</text>
</g>
<!-- dk -->
<g id="node4" class="node"><title>dk</title>
<ellipse fill="none" stroke="black" cx="94" cy="-36" rx="20" ry="20"/>
<text text-anchor="start" x="85.5" y="-33.3" font-family="Times New Roman,serif" font-size="14.00">D</text>
<text text-anchor="start" x="95.5" y="-33.3" font-family="Times New Roman,serif" baseline-shift="sub" font-size="14.00">k</text>
</g>
<!-- fk&#45;&gt;dk -->
<g id="edge2" class="edge"><title>fk&#45;&gt;dk</title>
<path fill="none" stroke="black" d="M94,-91.889C94,-81.2514 94,-67.2631 94,-56.0705"/>
</g>
</g>
</svg>
