<?xml version="1.0" encoding="UTF-8" standalone="no"?>
<!DOCTYPE svg PUBLIC "-//W3C//DTD SVG 1.1//EN"
 "http://www.w3.org/Graphics/SVG/1.1/DTD/svg11.dtd">
<!-- Generated by graphviz version 2.38.0 (20140413.2041)
 -->
<!-- Title: g Pages: 1 -->
<svg width="244pt" height="292pt"
 viewBox="0.00 0.00 244.00 292.00" xmlns="http://www.w3.org/2000/svg" xmlns:xlink="http://www.w3.org/1999/xlink">
<g id="graph0" class="graph" transform="scale(1 1) rotate(0) translate(4 288)">
<title>g</title>
<polygon fill="white" stroke="none" points="-4,4 -4,-288 240,-288 240,4 -4,4"/>
<g id="clust2" class="cluster"><title>cluster_c</title>
<polygon fill="none" stroke="black" points="122,-224 122,-276 228,-276 228,-224 122,-224"/>
</g>
<g id="clust1" class="cluster"><title>cluster_b</title>
<polygon fill="none" stroke="black" points="8,-224 8,-276 114,-276 114,-224 8,-224"/>
</g>
<g id="clust3" class="cluster"><title>cluster_gb</title>
<polygon fill="none" stroke="grey" stroke-dasharray="5,2" points="8,-152 8,-204 114,-204 114,-152 8,-152"/>
</g>
<g id="clust4" class="cluster"><title>cluster_gc</title>
<polygon fill="none" stroke="grey" stroke-dasharray="5,2" points="122,-152 122,-204 228,-204 228,-152 122,-152"/>
</g>
<g id="clust5" class="cluster"><title>cluster_f</title>
<polygon fill="none" stroke="grey" stroke-dasharray="5,2" points="65,-80 65,-132 171,-132 171,-80 65,-80"/>
</g>
<g id="clust6" class="cluster"><title>cluster_d</title>
<polygon fill="none" stroke="black" points="65,-8 65,-60 171,-60 171,-8 65,-8"/>
</g>
<!-- b1 -->
<g id="node1" class="node"><title>b1</title>
<ellipse fill="none" stroke="black" cx="88" cy="-250" rx="18" ry="18"/>
<text text-anchor="start" x="79.5" y="-247.3" font-family="Times New Roman,serif" font-size="14.00">B</text>
<text text-anchor="start" x="89.5" y="-247.3" font-family="Times New Roman,serif" baseline-shift="sub" font-size="14.00">1</text>
</g>
<!-- gbi -->
<g id="node5" class="node"><title>gbi</title>
<polygon fill="none" stroke="black" points="106,-196 70,-196 70,-160 106,-160 106,-196"/>
<text text-anchor="start" x="76" y="-175.3" font-family="Times New Roman,serif" font-size="14.00">G</text>
<text text-anchor="start" x="87" y="-175.3" font-family="Times New Roman,serif" baseline-shift="sub" font-size="14.00">B,i</text>
</g>
<!-- b1&#45;&gt;gbi -->
<g id="edge4" class="edge"><title>b1&#45;&gt;gbi</title>
<path fill="none" stroke="black" stroke-width="2.3" d="M88,-231.697C88,-220.846 88,-206.917 88,-196.104"/>
</g>
<!-- gb0 -->
<g id="node6" class="node"><title>gb0</title>
<polygon fill="none" stroke="black" points="52,-196 16,-196 16,-160 52,-160 52,-196"/>
<text text-anchor="start" x="20" y="-175.3" font-family="Times New Roman,serif" font-size="14.00">G</text>
<text text-anchor="start" x="31" y="-175.3" font-family="Times New Roman,serif" baseline-shift="sub" font-size="14.00">B,0</text>
</g>
<!-- b1&#45;&gt;gb0 -->
<g id="edge3" class="edge"><title>b1&#45;&gt;gb0</title>
<path fill="none" stroke="black" stroke-width="2.3" d="M77.3313,-235.17C68.6636,-223.934 56.3989,-208.036 47.129,-196.019"/>
</g>
<!-- b0 -->
<g id="node2" class="node"><title>b0</title>
<ellipse fill="none" stroke="black" cx="34" cy="-250" rx="18" ry="18"/>
<text text-anchor="start" x="25.5" y="-247.3" font-family="Times New Roman,serif" font-size="14.00">B</text>
<text text-anchor="start" x="35.5" y="-247.3" font-family="Times New Roman,serif" baseline-shift="sub" font-size="14.00">0</text>
</g>
<!-- b0&#45;&gt;gbi -->
<g id="edge2" class="edge"><title>b0&#45;&gt;gbi</title>
<path fill="none" stroke="black" stroke-width="2.3" d="M44.6687,-235.17C53.3364,-223.934 65.6011,-208.036 74.871,-196.019"/>
</g>
<!-- b0&#45;&gt;gb0 -->
<g id="edge1" class="edge"><title>b0&#45;&gt;gb0</title>
<path fill="none" stroke="black" stroke-width="2.3" d="M34,-231.697C34,-220.846 34,-206.917 34,-196.104"/>
</g>
<!-- c1 -->
<g id="node3" class="node"><title>c1</title>
<ellipse fill="none" stroke="black" cx="202" cy="-250" rx="18" ry="18"/>
<text text-anchor="start" x="193.5" y="-247.3" font-family="Times New Roman,serif" font-size="14.00">C</text>
<text text-anchor="start" x="203.5" y="-247.3" font-family="Times New Roman,serif" baseline-shift="sub" font-size="14.00">1</text>
</g>
<!-- gci -->
<g id="node7" class="node"><title>gci</title>
<polygon fill="none" stroke="black" points="220,-196 184,-196 184,-160 220,-160 220,-196"/>
<text text-anchor="start" x="189.5" y="-175.3" font-family="Times New Roman,serif" font-size="14.00">G</text>
<text text-anchor="start" x="200.5" y="-175.3" font-family="Times New Roman,serif" baseline-shift="sub" font-size="14.00">C,i</text>
</g>
<!-- c1&#45;&gt;gci -->
<g id="edge8" class="edge"><title>c1&#45;&gt;gci</title>
<path fill="none" stroke="black" stroke-width="2.3" d="M202,-231.697C202,-220.846 202,-206.917 202,-196.104"/>
</g>
<!-- gc0 -->
<g id="node8" class="node"><title>gc0</title>
<polygon fill="none" stroke="black" points="166,-196 130,-196 130,-160 166,-160 166,-196"/>
<text text-anchor="start" x="133.5" y="-175.3" font-family="Times New Roman,serif" font-size="14.00">G</text>
<text text-anchor="start" x="144.5" y="-175.3" font-family="Times New Roman,serif" baseline-shift="sub" font-size="14.00">C,0</text>
</g>
<!-- c1&#45;&gt;gc0 -->
<g id="edge7" class="edge"><title>c1&#45;&gt;gc0</title>
<path fill="none" stroke="black" stroke-width="2.3" d="M191.331,-235.17C182.664,-223.934 170.399,-208.036 161.129,-196.019"/>
</g>
<!-- c0 -->
<g id="node4" class="node"><title>c0</title>
<ellipse fill="none" stroke="black" cx="148" cy="-250" rx="18" ry="18"/>
<text text-anchor="start" x="139.5" y="-247.3" font-family="Times New Roman,serif" font-size="14.00">C</text>
<text text-anchor="start" x="149.5" y="-247.3" font-family="Times New Roman,serif" baseline-shift="sub" font-size="14.00">0</text>
</g>
<!-- c0&#45;&gt;gci -->
<g id="edge6" class="edge"><title>c0&#45;&gt;gci</title>
<path fill="none" stroke="black" stroke-width="2.3" d="M158.669,-235.17C167.336,-223.934 179.601,-208.036 188.871,-196.019"/>
</g>
<!-- c0&#45;&gt;gc0 -->
<g id="edge5" class="edge"><title>c0&#45;&gt;gc0</title>
<path fill="none" stroke="black" stroke-width="2.3" d="M148,-231.697C148,-220.846 148,-206.917 148,-196.104"/>
</g>
<!-- fi -->
<g id="node10" class="node"><title>fi</title>
<polygon fill="none" stroke="black" points="163,-124 127,-124 127,-88 163,-88 163,-124"/>
<text text-anchor="start" x="139" y="-103.3" font-family="Times New Roman,serif" font-size="14.00">F</text>
<text text-anchor="start" x="148" y="-103.3" font-family="Times New Roman,serif" baseline-shift="sub" font-size="14.00">i</text>
</g>
<!-- gbi&#45;&gt;fi -->
<g id="edge10" class="edge"><title>gbi&#45;&gt;fi</title>
<path fill="none" stroke="black" d="M102.09,-159.697C110.925,-148.846 122.268,-134.917 131.072,-124.104"/>
</g>
<!-- f0 -->
<g id="node9" class="node"><title>f0</title>
<polygon fill="none" stroke="black" points="109,-124 73,-124 73,-88 109,-88 109,-124"/>
<text text-anchor="start" x="83" y="-103.3" font-family="Times New Roman,serif" font-size="14.00">F</text>
<text text-anchor="start" x="92" y="-103.3" font-family="Times New Roman,serif" baseline-shift="sub" font-size="14.00">0</text>
</g>
<!-- gb0&#45;&gt;f0 -->
<g id="edge9" class="edge"><title>gb0&#45;&gt;f0</title>
<path fill="none" stroke="black" d="M48.0899,-159.697C56.9252,-148.846 68.2678,-134.917 77.0722,-124.104"/>
</g>
<!-- gci&#45;&gt;fi -->
<g id="edge12" class="edge"><title>gci&#45;&gt;fi</title>
<path fill="none" stroke="black" d="M187.91,-159.697C179.075,-148.846 167.732,-134.917 158.928,-124.104"/>
</g>
<!-- gc0&#45;&gt;f0 -->
<g id="edge11" class="edge"><title>gc0&#45;&gt;f0</title>
<path fill="none" stroke="black" d="M133.91,-159.697C125.075,-148.846 113.732,-134.917 104.928,-124.104"/>
</g>
<!-- d0 -->
<g id="node12" class="node"><title>d0</title>
<ellipse fill="none" stroke="black" cx="91" cy="-34" rx="18" ry="18"/>
<text text-anchor="start" x="82.5" y="-31.3" font-family="Times New Roman,serif" font-size="14.00">D</text>
<text text-anchor="start" x="92.5" y="-31.3" font-family="Times New Roman,serif" baseline-shift="sub" font-size="14.00">0</text>
</g>
<!-- f0&#45;&gt;d0 -->
<g id="edge13" class="edge"><title>f0&#45;&gt;d0</title>
<path fill="none" stroke="black" d="M91,-87.6966C91,-76.8463 91,-62.9167 91,-52.1043"/>
</g>
<!-- di -->
<g id="node11" class="node"><title>di</title>
<ellipse fill="none" stroke="black" cx="145" cy="-34" rx="18" ry="18"/>
<text text-anchor="start" x="138.5" y="-31.3" font-family="Times New Roman,serif" font-size="14.00">D</text>
<text text-anchor="start" x="148.5" y="-31.3" font-family="Times New Roman,serif" baseline-shift="sub" font-size="14.00">i</text>
</g>
<!-- fi&#45;&gt;di -->
<g id="edge14" class="edge"><title>fi&#45;&gt;di</title>
<path fill="none" stroke="black" d="M145,-87.6966C145,-76.8463 145,-62.9167 145,-52.1043"/>
</g>
</g>
</svg>
