<?xml version="1.0" encoding="UTF-8" standalone="no"?>
<!DOCTYPE svg PUBLIC "-//W3C//DTD SVG 1.1//EN"
 "http://www.w3.org/Graphics/SVG/1.1/DTD/svg11.dtd">
<!-- Generated by graphviz version 2.38.0 (20140413.2041)
 -->
<!-- Title: g Pages: 1 -->
<svg width="244pt" height="148pt"
 viewBox="0.00 0.00 244.00 148.00" xmlns="http://www.w3.org/2000/svg" xmlns:xlink="http://www.w3.org/1999/xlink">
<g id="graph0" class="graph" transform="scale(1 1) rotate(0) translate(4 144)">
<title>g</title>
<polygon fill="white" stroke="none" points="-4,4 -4,-144 240,-144 240,4 -4,4"/>
<g id="clust3" class="cluster"><title>cluster_d</title>
<polygon fill="none" stroke="black" points="65,-8 65,-60 171,-60 171,-8 65,-8"/>
</g>
<g id="clust2" class="cluster"><title>cluster_c</title>
<polygon fill="none" stroke="black" points="122,-80 122,-132 228,-132 228,-80 122,-80"/>
</g>
<g id="clust1" class="cluster"><title>cluster_b</title>
<polygon fill="none" stroke="black" points="8,-80 8,-132 114,-132 114,-80 8,-80"/>
</g>
<!-- b1 -->
<g id="node1" class="node"><title>b1</title>
<ellipse fill="none" stroke="black" cx="88" cy="-106" rx="18" ry="18"/>
<text text-anchor="start" x="79.5" y="-103.3" font-family="Times New Roman,serif" font-size="14.00">B</text>
<text text-anchor="start" x="89.5" y="-103.3" font-family="Times New Roman,serif" baseline-shift="sub" font-size="14.00">1</text>
</g>
<!-- di -->
<g id="node5" class="node"><title>di</title>
<ellipse fill="none" stroke="black" cx="145" cy="-34" rx="18" ry="18"/>
<text text-anchor="start" x="138.5" y="-31.3" font-family="Times New Roman,serif" font-size="14.00">D</text>
<text text-anchor="start" x="148.5" y="-31.3" font-family="Times New Roman,serif" baseline-shift="sub" font-size="14.00">i</text>
</g>
<!-- b1&#45;&gt;di -->
<g id="edge4" class="edge"><title>b1&#45;&gt;di</title>
<path fill="none" stroke="black" d="M98.9902,-91.5033C109.084,-79.1079 123.961,-60.8376 134.044,-48.4553"/>
</g>
<!-- d0 -->
<g id="node6" class="node"><title>d0</title>
<ellipse fill="none" stroke="black" cx="91" cy="-34" rx="18" ry="18"/>
<text text-anchor="start" x="82.5" y="-31.3" font-family="Times New Roman,serif" font-size="14.00">D</text>
<text text-anchor="start" x="92.5" y="-31.3" font-family="Times New Roman,serif" baseline-shift="sub" font-size="14.00">0</text>
</g>
<!-- b1&#45;&gt;d0 -->
<g id="edge3" class="edge"><title>b1&#45;&gt;d0</title>
<path fill="none" stroke="black" d="M88.7416,-87.6966C89.2066,-76.8463 89.8036,-62.9167 90.267,-52.1043"/>
</g>
<!-- b0 -->
<g id="node2" class="node"><title>b0</title>
<ellipse fill="none" stroke="black" cx="34" cy="-106" rx="18" ry="18"/>
<text text-anchor="start" x="25.5" y="-103.3" font-family="Times New Roman,serif" font-size="14.00">B</text>
<text text-anchor="start" x="35.5" y="-103.3" font-family="Times New Roman,serif" baseline-shift="sub" font-size="14.00">0</text>
</g>
<!-- b0&#45;&gt;di -->
<g id="edge2" class="edge"><title>b0&#45;&gt;di</title>
<path fill="none" stroke="black" d="M45.7631,-92.1363C50.2111,-87.8324 55.5279,-83.2965 61,-80 83.9969,-66.146 95.0031,-73.854 118,-60 123.472,-56.7035 128.789,-52.1676 133.237,-47.8637"/>
</g>
<!-- b0&#45;&gt;d0 -->
<g id="edge1" class="edge"><title>b0&#45;&gt;d0</title>
<path fill="none" stroke="black" d="M44.9902,-91.5033C55.0836,-79.1079 69.9608,-60.8376 80.0436,-48.4553"/>
</g>
<!-- c1 -->
<g id="node3" class="node"><title>c1</title>
<ellipse fill="none" stroke="black" cx="202" cy="-106" rx="18" ry="18"/>
<text text-anchor="start" x="193.5" y="-103.3" font-family="Times New Roman,serif" font-size="14.00">C</text>
<text text-anchor="start" x="203.5" y="-103.3" font-family="Times New Roman,serif" baseline-shift="sub" font-size="14.00">1</text>
</g>
<!-- c1&#45;&gt;di -->
<g id="edge8" class="edge"><title>c1&#45;&gt;di</title>
<path fill="none" stroke="black" d="M191.01,-91.5033C180.916,-79.1079 166.039,-60.8376 155.956,-48.4553"/>
</g>
<!-- c1&#45;&gt;d0 -->
<g id="edge7" class="edge"><title>c1&#45;&gt;d0</title>
<path fill="none" stroke="black" d="M190.237,-92.1363C185.789,-87.8324 180.472,-83.2965 175,-80 152.003,-66.146 140.997,-73.854 118,-60 112.528,-56.7035 107.211,-52.1676 102.763,-47.8637"/>
</g>
<!-- c0 -->
<g id="node4" class="node"><title>c0</title>
<ellipse fill="none" stroke="black" cx="148" cy="-106" rx="18" ry="18"/>
<text text-anchor="start" x="139.5" y="-103.3" font-family="Times New Roman,serif" font-size="14.00">C</text>
<text text-anchor="start" x="149.5" y="-103.3" font-family="Times New Roman,serif" baseline-shift="sub" font-size="14.00">0</text>
</g>
<!-- c0&#45;&gt;di -->
<g id="edge6" class="edge"><title>c0&#45;&gt;di</title>
<path fill="none" stroke="black" d="M147.258,-87.6966C146.793,-76.8463 146.196,-62.9167 145.733,-52.1043"/>
</g>
<!-- c0&#45;&gt;d0 -->
<g id="edge5" class="edge"><title>c0&#45;&gt;d0</title>
<path fill="none" stroke="black" d="M137.01,-91.5033C126.916,-79.1079 112.039,-60.8376 101.956,-48.4553"/>
</g>
</g>
</svg>
